<svg xmlns="http://www.w3.org/2000/svg" xmlns:xlink="http://www.w3.org/1999/xlink" viewBox="0 0 1922.68 275"><defs><style>.cls-1{fill:url(#linear-gradient);}.cls-2{fill:#d6d622;}.cls-10,.cls-11,.cls-3{fill:none;}.cls-4{fill:url(#linear-gradient-2);}.cls-5{fill:url(#linear-gradient-3);}.cls-6{fill:url(#linear-gradient-4);}.cls-7{fill:url(#linear-gradient-5);}.cls-8{fill:#931982;}.cls-9{fill:#b90052;}.cls-10{stroke:#1900a0;stroke-width:5px;}.cls-10,.cls-11,.cls-12{stroke-miterlimit:10;}.cls-11{stroke:#fff;}.cls-12{font-size:53.45px;fill:#faf7fc;stroke:#020202;stroke-width:2px;font-family:Commando;}</style><linearGradient id="linear-gradient" x1="960.58" y1="226.78" x2="961.97" y2="31.89" gradientUnits="userSpaceOnUse"><stop offset="0" stop-color="#1b1464"/><stop offset="0.07" stop-color="#171154"/><stop offset="0.23" stop-color="#0f0b36"/><stop offset="0.39" stop-color="#08061e"/><stop offset="0.57" stop-color="#04030d"/><stop offset="0.76" stop-color="#010103"/><stop offset="1"/></linearGradient><linearGradient id="linear-gradient-2" x1="1041.15" y1="-224.62" x2="1041.01" y2="33.74" gradientTransform="matrix(1, 0, 0, -1, -51.22, 85.11)" gradientUnits="userSpaceOnUse"><stop offset="0" stop-color="#662d91"/><stop offset="0.29" stop-color="#792c80"/><stop offset="0.33" stop-color="#7c2c80"/><stop offset="0.36" stop-color="#842b7f"/><stop offset="0.38" stop-color="#92297e"/><stop offset="0.4" stop-color="#a7267d"/><stop offset="0.42" stop-color="#c1237c"/><stop offset="0.44" stop-color="#e11f7a"/><stop offset="0.44" stop-color="#ed1e79"/><stop offset="0.49" stop-color="#ed2573"/><stop offset="0.55" stop-color="#eb3a62"/><stop offset="0.62" stop-color="#e95b46"/><stop offset="0.71" stop-color="#e68920"/><stop offset="0.72" stop-color="#e68e1b"/><stop offset="0.85" stop-color="#f7db09"/><stop offset="1" stop-color="#ff0"/></linearGradient><linearGradient id="linear-gradient-3" x1="1041.15" y1="-231.91" x2="1041" y2="26.44" xlink:href="#linear-gradient-2"/><linearGradient id="linear-gradient-4" x1="1041.17" y1="-234.74" x2="1041.01" y2="46.79" xlink:href="#linear-gradient-2"/><linearGradient id="linear-gradient-5" x1="1041.31" y1="-245.36" x2="1041.16" y2="12.89" xlink:href="#linear-gradient-2"/></defs><g id="Layer_1" data-name="Layer 1"><rect class="cls-1" width="1922.68" height="239.86"/><rect x="0.5" y="240.36" width="1921.68" height="34.14"/><path d="M1921.68,240.86V274H1V240.86H1921.68m1-1H0V275H1922.68V239.86Z" transform="translate(0)"/><rect x="110.2" y="142.5" width="104.71" height="104.83"/><path d="M214.41,143V246.83H110.7V143H214.41m1-1H109.7V247.83H215.41V142Z" transform="translate(0)"/><rect x="321.62" y="129.5" width="130.88" height="121.09"/><path d="M452,130V250.09H322.12V130H452m1-1H321.12V251.09H453V129Z" transform="translate(0)"/><rect x="1494.37" y="129.49" width="136.62" height="118.93"/><path d="M1630.49,130V247.91H1494.87V130h135.62m1-1H1493.87V248.91h137.62V129Z" transform="translate(0)"/><rect x="1715.76" y="152.67" width="131.63" height="91.03"/><path d="M1846.89,153.17v90H1716.26v-90h130.63m1-1H1715.26v92h132.63v-92Z" transform="translate(0)"/><rect x="1.49" y="153.76" width="45.87" height="93.57"/><path d="M46.86,154.26v92.57H2V154.26H46.86m1-1H1v94.57H47.86V153.26Z" transform="translate(0)"/><rect class="cls-2" x="153.72" y="184.44" width="16.45" height="6.05" rx="2.93"/><line class="cls-3" x1="12.97" y1="159.06" x2="13.97" y2="159.06"/><rect class="cls-2" x="120.81" y="184.14" width="16.45" height="6.05" rx="2.93"/><rect class="cls-2" x="186.63" y="184.5" width="16.45" height="6.05" rx="2.93"/><rect class="cls-2" x="7.61" y="156.7" width="16.45" height="6.05" rx="2.93"/><rect class="cls-2" x="7.61" y="168.66" width="16.45" height="6.05" rx="2.93"/><rect class="cls-2" x="8.08" y="179.76" width="16.45" height="6.05" rx="2.93"/><rect class="cls-2" x="8.08" y="191.71" width="16.45" height="6.05" rx="2.93"/><rect class="cls-2" x="8.08" y="203.67" width="16.45" height="6.05" rx="2.93"/><rect class="cls-2" x="8.08" y="214.3" width="16.45" height="6.05" rx="2.93"/><rect class="cls-2" x="8.08" y="224.81" width="16.45" height="6.05" rx="2.93"/><rect class="cls-2" x="120.77" y="194.74" width="16.45" height="6.05" rx="2.93"/><rect class="cls-2" x="153.68" y="194.38" width="16.45" height="6.05" rx="2.93"/><rect class="cls-2" x="186.59" y="194.74" width="16.45" height="6.05" rx="2.93"/><rect class="cls-2" x="120.81" y="184.14" width="16.45" height="6.05" rx="2.93"/><rect class="cls-2" x="120.77" y="205.61" width="16.45" height="6.05" rx="2.93"/><rect class="cls-2" x="153.68" y="205.61" width="16.45" height="6.05" rx="2.93"/><rect class="cls-2" x="186.59" y="205.97" width="16.45" height="6.05" rx="2.93"/><rect class="cls-2" x="120.77" y="217.2" width="16.45" height="6.05" rx="2.93"/><rect class="cls-2" x="154.68" y="217.2" width="16.45" height="6.05" rx="2.93"/><rect class="cls-2" x="186.63" y="217.33" width="16.45" height="6.05" rx="2.93"/><rect class="cls-2" x="338.56" y="157.78" width="16.45" height="6.05" rx="2.93"/><rect class="cls-2" x="375.46" y="157.78" width="16.47" height="5.99" rx="2.93"/><rect class="cls-2" x="417.34" y="157.78" width="16.45" height="6.05" rx="2.93"/><rect class="cls-2" x="417.34" y="169.74" width="16.45" height="6.05" rx="2.93"/><rect class="cls-2" x="375.46" y="169.74" width="16.45" height="6.05" rx="2.93"/><rect class="cls-2" x="338.56" y="169.74" width="16.45" height="6.05" rx="2.93"/><rect class="cls-2" x="338.56" y="182.78" width="16.45" height="6.05" rx="2.93"/><rect class="cls-2" x="417.34" y="182.78" width="16.45" height="6.05" rx="2.93"/><rect class="cls-2" x="338.56" y="195.1" width="16.45" height="6.05" rx="2.93"/><rect class="cls-2" x="375.46" y="195.1" width="16.45" height="6.05" rx="2.93"/><rect class="cls-2" x="417.34" y="195.1" width="16.45" height="6.05" rx="2.93"/><rect class="cls-2" x="375.46" y="207.42" width="16.45" height="6.05" rx="2.93"/><rect class="cls-2" x="417.34" y="207.42" width="16.45" height="6.05" rx="2.93"/><rect class="cls-2" x="1511.87" y="134.67" width="16.45" height="6.05" rx="2.93"/><rect class="cls-2" x="1554.76" y="134.67" width="16.45" height="6.05" rx="2.93"/><rect class="cls-2" x="1598.63" y="134.67" width="16.45" height="6.05" rx="2.93"/><rect class="cls-2" x="1511.87" y="147.35" width="16.45" height="6.05" rx="2.93"/><rect class="cls-2" x="1511.87" y="158.22" width="16.45" height="6.05" rx="2.93"/><rect class="cls-2" x="1554.76" y="146.27" width="16.45" height="6.05" rx="2.93"/><rect class="cls-2" x="1598.63" y="158.22" width="16.45" height="6.05" rx="2.93"/><rect class="cls-2" x="1554.76" y="165.11" width="16.45" height="6.05" rx="2.93"/><rect class="cls-2" x="1511.87" y="175.25" width="16.45" height="6.05" rx="2.93"/><rect class="cls-2" x="1554.76" y="175.25" width="16.45" height="6.05" rx="2.93"/><rect class="cls-2" x="1598.63" y="175.25" width="16.45" height="6.05" rx="2.93"/><rect class="cls-2" x="1511.87" y="187.57" width="16.45" height="6.05" rx="2.93"/><rect class="cls-2" x="1731.35" y="158.66" width="16.45" height="6.05" rx="2.93"/><rect class="cls-2" x="1773.24" y="158.66" width="16.45" height="6.05" rx="2.93"/><rect class="cls-2" x="1821.1" y="158.66" width="16.45" height="6.05" rx="2.93"/><rect class="cls-2" x="1773.24" y="171.35" width="16.45" height="6.05" rx="2.93"/><rect class="cls-2" x="1773.24" y="182.21" width="16.45" height="6.05" rx="2.93"/><rect class="cls-2" x="1731.35" y="182.21" width="16.45" height="6.05" rx="2.93"/><rect class="cls-2" x="1821.1" y="182.21" width="16.45" height="6.05" rx="2.93"/><rect class="cls-2" x="1731.35" y="193.81" width="16.45" height="6.05" rx="2.93"/><rect class="cls-2" x="1773.24" y="193.81" width="16.45" height="6.05" rx="2.93"/><rect class="cls-2" x="1821.1" y="193.81" width="16.45" height="6.05" rx="2.93"/><text/><rect x="577.93" y="135.5" width="139.57" height="138.92"/><path d="M717,136V273.92H578.43V136H717m1-1H577.43V274.92H718V135Z" transform="translate(0)"/><rect class="cls-2" x="593.53" y="189.38" width="16.45" height="6.05" rx="2.93"/><rect class="cls-2" x="635.41" y="189.38" width="16.45" height="6.05" rx="2.93"/><rect class="cls-2" x="683.28" y="189.38" width="16.45" height="6.05" rx="2.93"/><rect class="cls-2" x="635.41" y="202.06" width="16.45" height="6.05" rx="2.93"/><rect class="cls-2" x="635.41" y="212.93" width="16.45" height="6.05" rx="2.93"/><rect class="cls-2" x="593.53" y="212.93" width="16.45" height="6.05" rx="2.93"/><rect class="cls-2" x="683.28" y="212.93" width="16.45" height="6.05" rx="2.93"/><rect class="cls-2" x="593.53" y="224.53" width="16.45" height="6.05" rx="2.93"/><rect class="cls-2" x="635.41" y="224.53" width="16.45" height="6.05" rx="2.93"/><rect class="cls-2" x="683.28" y="224.53" width="16.45" height="6.05" rx="2.93"/><rect x="1263.03" y="183.39" width="131.63" height="91.03"/><path d="M1394.16,183.89v90H1263.53v-90h130.63m1-1H1262.53v92h132.63v-92Z" transform="translate(0)"/><rect class="cls-2" x="1278.63" y="189.38" width="16.45" height="6.05" rx="2.93"/><rect class="cls-2" x="1320.51" y="189.38" width="16.45" height="6.05" rx="2.93"/><rect class="cls-2" x="1368.38" y="189.38" width="16.45" height="6.05" rx="2.93"/><rect class="cls-2" x="1320.51" y="212.93" width="16.45" height="6.05" rx="2.93"/><rect class="cls-2" x="1281.62" y="204.24" width="16.45" height="6.05" rx="2.93"/><rect class="cls-2" x="1368.38" y="212.93" width="16.45" height="6.05" rx="2.93"/><rect class="cls-2" x="1278.63" y="224.53" width="16.45" height="6.05" rx="2.93"/><rect class="cls-2" x="1320.51" y="224.53" width="16.45" height="6.05" rx="2.93"/><rect class="cls-2" x="1368.38" y="224.53" width="16.45" height="6.05" rx="2.93"/></g><g id="Layer_2" data-name="Layer 2"><path class="cls-4" d="M843.08,199.93q.72,4.71,1.81,9.33h290c.74-3.08,1.35-6.18,1.82-9.33Z" transform="translate(0)"/><path class="cls-5" d="M848.06,224.83h283.62q1.59-4.59,2.79-9.33H845.27Q846.49,220.24,848.06,224.83Z" transform="translate(0)"/><path class="cls-6" d="M1137.94,180.18C1137.94,109,1071.65,38,989.87,38S841.8,109,841.8,180.18a114,114,0,0,0,1.05,15.44h294A114,114,0,0,0,1137.94,180.18Z" transform="translate(0)"/><path class="cls-7" d="M851.49,238.32h277.08q1.56-4.59,2.73-9.33H848.76Q849.93,233.71,851.49,238.32Z" transform="translate(0)"/></g><g id="Layer_3" data-name="Layer 3"><rect class="cls-2" x="916.3" y="107.45" width="6.45" height="6.53" rx="2.93"/><rect class="cls-2" x="943.66" y="107.45" width="6.45" height="6.53" rx="2.93"/><rect class="cls-2" x="928.8" y="117.61" width="6.45" height="6.53" rx="2.93"/><rect class="cls-2" x="916.3" y="131.29" width="6.45" height="6.53" rx="2.93"/><rect class="cls-2" x="928.8" y="131.29" width="6.45" height="6.53" rx="2.93"/><rect class="cls-2" x="942.48" y="131.29" width="6.45" height="6.53" rx="2.93"/><rect class="cls-2" x="928.8" y="143.09" width="6.45" height="6.53" rx="2.93"/><rect class="cls-2" x="916.3" y="143.09" width="6.45" height="6.53" rx="2.93"/><rect class="cls-2" x="942.48" y="143.09" width="6.45" height="6.53" rx="2.93"/><rect class="cls-2" x="942.48" y="154.81" width="6.45" height="6.53" rx="2.93"/><rect class="cls-2" x="927.63" y="154.81" width="6.45" height="6.53" rx="2.93"/><rect class="cls-2" x="1043.38" y="128.2" width="6.45" height="6.53" rx="2.93"/><rect class="cls-2" x="1028.14" y="128.2" width="6.45" height="6.53" rx="2.93"/><rect class="cls-2" x="1043.38" y="139.93" width="6.45" height="6.53" rx="2.93"/><rect class="cls-2" x="1028.14" y="139.93" width="6.45" height="6.53" rx="2.93"/><rect class="cls-2" x="1028.14" y="152.83" width="6.45" height="6.53" rx="2.93"/><rect class="cls-2" x="1028.14" y="164.16" width="6.45" height="6.53" rx="2.93"/><g id="Layer_7" data-name="Layer 7"><polygon class="cls-8" points="1069.77 45.19 1050.96 144.62 1032.16 244.06 938.6 184.28 845.03 124.5 957.4 84.84 1069.77 45.19"/></g><g id="Layer_8" data-name="Layer 8"><polygon class="cls-9" points="1086.68 62.75 1042.44 156.56 998.21 250.38 922.37 175.49 846.53 100.61 966.61 81.68 1086.68 62.75"/></g><g id="Layer_9" data-name="Layer 9"><polyline class="cls-10" points="850.06 151.43 942.01 97.29 1035.77 41.53 1051.49 135.07 1067.08 228.85 958.21 190.44 848.86 152.41"/></g><g id="Layer_9-2" data-name="Layer 9"><polyline class="cls-11" points="850.2 151.83 942.15 97.69 1035.91 41.93 1051.63 135.47 1067.22 229.26 958.35 190.84 849 152.81"/></g><text class="cls-12" transform="translate(839.51 161.4) scale(0.99 1)">Neons Media </text></g></svg>